<?xml version="1.0" standalone="no"?>
<!DOCTYPE svg PUBLIC "-//W3C//DTD SVG 20010904//EN"
 "http://www.w3.org/TR/2001/REC-SVG-20010904/DTD/svg10.dtd">
<svg version="1.0" xmlns="http://www.w3.org/2000/svg"
 width="992.000000pt" height="624.000000pt" viewBox="0 0 992.000000 624.000000"
 preserveAspectRatio="xMidYMid meet">

<g transform="translate(0.000000,624.000000) scale(0.100000,-0.100000)"
fill="#000000" stroke="none">
<path d="M2252 3984 c-71 -36 -98 -129 -53 -185 17 -22 29 -25 119 -29 l101
-5 -228 -560 -228 -560 -234 -7 c-303 -8 -375 -27 -467 -118 -122 -123 -144
-320 -51 -460 114 -169 351 -216 569 -113 57 27 94 55 156 117 72 72 88 95
144 209 l63 127 106 0 c129 0 273 15 355 36 182 46 327 175 404 358 23 54 26
75 27 181 0 115 -1 122 -30 174 -17 32 -50 70 -77 90 -26 20 -47 38 -47 41 -1
3 24 18 53 33 70 37 150 121 184 194 24 52 27 69 27 168 0 94 -3 116 -22 151
-30 56 -103 119 -172 146 -53 21 -71 23 -361 25 -267 3 -309 1 -338 -13z m598
-242 c58 -43 56 -142 -4 -229 -41 -59 -104 -93 -189 -102 -117 -12 -116 -20
-37 171 38 92 72 173 76 179 10 17 124 3 154 -19z m-212 -583 c85 -15 130 -53
143 -122 17 -91 -24 -205 -100 -284 -41 -43 -135 -89 -210 -103 -80 -15 -234
-13 -228 3 3 6 51 126 107 265 l103 252 60 0 c33 0 90 -5 125 -11z m-788 -785
c-17 -44 -79 -131 -118 -165 -108 -95 -257 -91 -298 7 -30 71 6 146 81 172 17
6 101 11 187 11 l158 1 -10 -26z"/>
<path d="M4906 3529 c-15 -11 -35 -38 -46 -59 -41 -80 -140 -342 -140 -370 0
-43 37 -80 85 -86 62 -8 95 19 136 110 l34 76 44 0 c41 0 43 -1 30 -19 -107
-149 -136 -219 -124 -299 14 -96 57 -159 130 -193 33 -15 65 -19 188 -19 162
0 199 8 235 55 29 36 29 98 2 125 -25 25 -44 29 -166 32 -84 2 -106 6 -123 22
-26 24 -28 79 -3 124 32 60 124 162 151 168 83 19 106 28 128 52 20 21 23 34
21 75 -2 41 -8 54 -31 71 -26 19 -46 21 -205 26 l-176 5 -17 44 c-9 25 -26 53
-39 63 -30 24 -81 23 -114 -3z"/>
<path d="M4267 3420 c-187 -48 -329 -238 -330 -445 -1 -108 21 -172 78 -224
76 -70 93 -74 335 -79 139 -2 228 0 252 7 77 23 114 116 69 172 -19 24 -23 24
-233 29 -140 3 -220 9 -234 17 -18 11 -34 33 -34 49 0 2 46 4 103 4 217 1 300
31 350 129 61 122 13 263 -110 321 -54 25 -182 36 -246 20z m137 -206 c20 -20
20 -48 1 -64 -16 -14 -158 -20 -170 -8 -12 12 15 48 53 67 45 24 95 26 116 5z"/>
<path d="M5915 3424 c-169 -43 -299 -162 -346 -316 -32 -103 -24 -224 18 -299
62 -111 143 -144 337 -137 161 6 236 46 316 170 59 90 83 180 78 285 -5 101
-26 151 -87 212 -59 59 -121 84 -216 87 -44 2 -89 1 -100 -2z m122 -224 c39
-24 58 -79 49 -143 -8 -51 -53 -128 -90 -152 -57 -38 -161 -27 -192 21 -36 55
-9 177 53 236 62 59 124 72 180 38z"/>
<path d="M6912 3410 c-23 -10 -57 -31 -75 -45 l-34 -25 -11 26 c-15 32 -75 58
-118 49 -19 -3 -44 -19 -61 -38 -37 -42 -255 -577 -257 -629 -1 -63 59 -103
132 -87 67 15 96 58 182 274 88 220 120 267 195 281 45 8 85 -16 85 -51 0 -13
-34 -110 -76 -215 -57 -145 -74 -198 -69 -219 13 -58 76 -87 141 -65 70 24 77
35 215 369 19 46 49 97 72 122 64 69 145 82 164 26 12 -34 9 -46 -56 -203 -61
-147 -70 -193 -47 -239 32 -62 62 -71 234 -71 173 0 210 9 242 62 23 37 25 66
9 101 -16 35 -49 47 -127 47 -103 0 -103 -1 -44 142 87 211 88 265 8 344 -85
86 -238 85 -351 -1 -25 -19 -49 -35 -53 -35 -5 0 -21 14 -38 31 -63 68 -175
89 -262 49z"/>
<path d="M8148 3411 c-121 -40 -221 -129 -280 -249 -31 -64 -33 -72 -33 -182
0 -110 1 -117 31 -170 63 -112 143 -145 338 -138 97 3 118 7 168 31 170 84
275 351 208 530 -24 65 -91 135 -157 167 -67 32 -196 37 -275 11z m169 -211
c45 -27 60 -82 44 -154 -29 -130 -131 -195 -236 -152 -42 18 -59 48 -58 106 1
57 21 106 64 155 57 65 126 82 186 45z"/>
<path d="M3375 3409 c-48 -14 -86 -60 -92 -113 -5 -39 -2 -48 22 -70 26 -24
35 -26 119 -26 l91 0 -178 -173 c-196 -190 -216 -219 -194 -283 8 -25 23 -43
47 -55 31 -17 61 -19 315 -19 272 0 281 1 320 23 53 30 78 93 55 135 -25 44
-54 52 -192 52 -69 0 -133 3 -141 6 -11 4 36 56 158 177 147 146 175 178 181
209 12 73 -15 118 -83 137 -45 13 -385 13 -428 0z"/>
</g>
</svg>
