<?xml version="1.0" standalone="no"?>
<!DOCTYPE svg PUBLIC "-//W3C//DTD SVG 20010904//EN"
 "http://www.w3.org/TR/2001/REC-SVG-20010904/DTD/svg10.dtd">
<svg version="1.0" xmlns="http://www.w3.org/2000/svg"
 width="993.000000pt" height="623.000000pt" viewBox="0 0 993.000000 623.000000"
 preserveAspectRatio="xMidYMid meet">

<g transform="translate(0.000000,623.000000) scale(0.100000,-0.100000)"
fill="#000000" stroke="none">
<path d="M90 3612 l0 -2527 498 -498 497 -497 4378 0 4377 0 0 2528 0 2527
-498 498 -497 497 -4378 0 -4377 0 0 -2528z m2813 362 c111 -28 177 -76 219
-158 44 -86 40 -233 -8 -328 -37 -72 -116 -153 -185 -187 l-59 -29 35 -22 c91
-56 138 -152 137 -281 -1 -148 -59 -278 -176 -394 -78 -77 -142 -113 -257
-145 -77 -21 -260 -40 -390 -40 l-75 0 -63 -125 c-113 -229 -258 -346 -459
-375 -197 -28 -382 67 -442 228 -18 46 -21 73 -18 142 7 142 69 246 185 307
85 45 144 54 394 60 l226 6 224 550 c123 303 225 557 227 564 3 10 -16 13 -82
13 -47 0 -96 5 -110 11 -49 23 -60 116 -19 162 50 56 56 57 357 57 221 0 291
-3 339 -16z m2121 -456 c14 -13 31 -41 38 -63 l13 -40 177 -5 c159 -5 179 -7
205 -26 46 -34 50 -103 8 -148 -15 -17 -42 -28 -85 -37 -59 -11 -64 -15 -120
-82 -68 -81 -90 -122 -90 -169 0 -61 24 -72 165 -78 146 -6 165 -16 165 -86 0
-53 -36 -99 -88 -114 -20 -5 -98 -10 -173 -10 -128 0 -138 2 -190 28 -76 38
-110 96 -117 196 -4 64 -1 81 21 130 14 31 47 83 72 116 l46 60 -48 0 -48 -1
-37 -77 c-42 -89 -78 -118 -133 -108 -47 9 -89 60 -81 98 6 33 118 313 147
370 34 66 106 87 153 46z m-511 -128 c121 -57 170 -194 113 -316 -45 -97 -112
-124 -307 -124 -76 0 -140 -4 -143 -9 -9 -14 4 -40 28 -54 14 -8 94 -14 232
-17 246 -6 254 -9 254 -88 0 -37 -6 -50 -33 -77 -43 -43 -77 -48 -313 -43
-218 5 -259 15 -327 81 -91 89 -104 269 -31 424 31 65 119 162 179 197 101 60
252 71 348 26z m1621 6 c65 -27 122 -81 155 -148 27 -53 31 -72 31 -144 0
-181 -98 -353 -239 -418 -39 -18 -66 -21 -181 -21 -157 0 -194 10 -256 67 -80
74 -110 196 -80 331 36 161 172 302 331 344 63 16 188 10 239 -11z m971 5 c22
-10 56 -34 75 -54 l33 -36 36 28 c75 59 120 76 206 76 69 0 86 -4 127 -27 64
-38 93 -88 92 -158 0 -43 -13 -87 -57 -198 -31 -79 -57 -148 -57 -153 0 -5 36
-9 80 -9 84 0 132 -15 144 -45 19 -50 -7 -115 -57 -142 -47 -26 -301 -32 -362
-8 -97 36 -100 95 -16 304 34 83 61 159 61 169 0 32 -29 62 -61 62 -71 0 -140
-68 -188 -186 -94 -227 -124 -296 -143 -319 -68 -86 -208 -67 -208 29 0 20 32
116 75 224 41 104 75 194 75 201 0 6 -9 20 -20 31 -42 42 -128 13 -176 -58
-12 -18 -46 -92 -76 -165 -79 -196 -117 -268 -157 -294 -75 -50 -171 -15 -171
62 0 36 209 567 245 621 22 35 77 56 121 48 31 -6 66 -36 76 -66 3 -7 21 1 45
21 76 61 180 78 258 42z m1320 -12 c59 -28 116 -83 146 -141 28 -53 37 -173
19 -250 -30 -131 -124 -259 -225 -308 -45 -22 -63 -24 -185 -25 -157 0 -194
10 -256 67 -104 96 -123 278 -44 435 53 106 186 215 296 243 66 16 192 6 249
-21z m-4578 -5 c34 -25 48 -69 39 -121 -6 -32 -32 -63 -182 -211 -96 -95 -174
-175 -174 -177 0 -2 70 -5 156 -7 l156 -3 24 -28 c41 -48 23 -121 -39 -154
-28 -16 -64 -18 -324 -18 -281 0 -293 1 -320 21 -35 27 -48 61 -39 108 6 32
35 65 189 217 l182 178 -86 1 c-96 0 -132 17 -142 66 -6 36 9 87 32 108 44 40
87 46 298 44 187 -3 204 -5 230 -24z"/>
<path d="M2691 3743 c-13 -25 -141 -342 -141 -349 0 -13 157 9 203 28 115 50
187 226 121 299 -35 39 -165 54 -183 22z"/>
<path d="M2349 2905 c-57 -142 -105 -262 -107 -267 -2 -4 41 -8 95 -8 220 0
351 69 421 219 35 75 38 194 6 238 -35 48 -84 65 -203 71 l-108 5 -104 -258z"/>
<path d="M1510 2379 c-102 -41 -117 -172 -25 -229 44 -27 125 -27 181 1 52 25
139 117 177 187 l28 52 -168 -1 c-92 0 -179 -5 -193 -10z"/>
<path d="M4282 3199 c-18 -12 -39 -34 -48 -50 l-15 -29 63 0 c74 0 137 16 145
36 3 8 -2 25 -11 39 -21 33 -86 34 -134 4z"/>
<path d="M5905 3191 c-69 -42 -115 -120 -115 -196 0 -65 22 -102 69 -116 123
-37 230 58 231 205 0 53 -3 61 -34 92 -28 28 -41 34 -77 34 -25 0 -57 -8 -74
-19z"/>
<path d="M8185 3191 c-69 -41 -115 -121 -117 -200 -2 -59 15 -89 57 -107 126
-52 245 49 245 209 0 42 -5 54 -34 83 -28 28 -41 34 -77 34 -25 0 -57 -8 -74
-19z"/>
</g>
</svg>
